# xmcd CD database file
#
# Track frame offsets:
#	150
#	20707
#	34215
#
# Disc length: 727 seconds
#
# Revision: 0
# Processed by: cddbd v1.5PL3 Copyright (c) Steve Scherf et al.
# Submitted via: CDex 1.51
#
DISCID=2002d503
DTITLE=原田知世 - Tears of Joy
DYEAR=2001
DGENRE=Pop
TTITLE0=Tears of Joy
TTITLE1=MOON RIVER
TTITLE2=Tears of Joy (Instrumental)
EXTD=YEAR: 2001
EXTT0=
EXTT1=
EXTT2=
PLAYORDER=
